<svg xmlns="http://www.w3.org/2000/svg" xmlns:xlink="http://www.w3.org/1999/xlink" width="704" height="1024" preserveAspectRatio="xMidYMid meet" viewBox="0 0 704 1024" style="-ms-transform: rotate(360deg); -webkit-transform: rotate(360deg); transform: rotate(360deg);"><path d="M350 1023q-95 0-175.5-46.5T47 850.5T0 677q0-174 234-531q50-77 91-132q9-13 25-13t26 13q7 9 18 24.5T432.5 92t53.5 79t58.5 94T604 371t50.5 106.5T691 583t13 94q0 56-18 109t-50.5 95.5t-76 74.5t-97.5 49.5t-112 17.5zm1-935q-39 55-78 116t-91.5 151.5t-85 177T64 677q0 116 84 199t202 83q120 0 205-83t85-199q0-41-15.5-95.5t-43-112t-57.5-112t-65.5-110t-60-91T351 88z" fill="#626262"/><rect x="0" y="0" width="704" height="1024" fill="rgba(0, 0, 0, 0)" /></svg>